<svg version="1.1"
     width="768" height="768"
     xmlns="http://www.w3.org/2000/svg">

    <!-- Center dot -->
    <circle cx="50%" cy="50%" r="3" fill="#1A1515" />

    <!-- First dot marks -->
    <circle cx="50%" cy="47%" r="2" fill="#1A1515" />
    <circle cx="47%" cy="50%" r="2" fill="#1A1515" />
    <circle cx="53%" cy="50%" r="2" fill="#1A1515" />
    <circle cx="50%" cy="53%" r="2" fill="#1A1515" />

    <!-- Line marks -->
    <line x1="50%" x2="50%" y1="39%" y2="44%" stroke="#1A1515" stroke-width="2" />
    <line x1="39%" x2="44%" y1="50%" y2="50%" stroke="#1A1515" stroke-width="2" />
    <line x1="56%" x2="61%" y1="50%" y2="50%" stroke="#1A1515" stroke-width="2" />
    <line x1="50%" x2="50%" y1="56%" y2="61%" stroke="#1A1515" stroke-width="2" />

    <!-- Second dot marks -->
    <circle cx="50%" cy="36%" r="2" fill="#1A1515" />
    <circle cx="36%" cy="50%" r="2" fill="#1A1515" />
    <circle cx="64%" cy="50%" r="2" fill="#1A1515" />
    <circle cx="50%" cy="64%" r="2" fill="#1A1515" />

    <!-- Outer lines -->
    <line x1="50%" x2="50%" y1="6%"  y2="33%" stroke="#1A1515" stroke-width="2" />
    <line x1="6%"  x2="33%" y1="50%" y2="50%" stroke="#1A1515" stroke-width="2" />
    <line x1="67%" x2="94%" y1="50%" y2="50%" stroke="#1A1515" stroke-width="2" />
    <line x1="50%" x2="50%" y1="67%" y2="94%" stroke="#1A1515" stroke-width="2" />

</svg>
